<svg xmlns="http://www.w3.org/2000/svg" width="144.865" height="55.386" viewBox="0 0 144.865 55.386">
  <g id="Group_21689" data-name="Group 21689" transform="translate(-227.276 -84.32)">
    <g id="Group_21685" data-name="Group 21685" transform="translate(227.276 84.32)">
      <g id="Group_21398" data-name="Group 21398" transform="translate(0)">
        <ellipse id="Ellipse_777" data-name="Ellipse 777" cx="27.693" cy="27.693" rx="27.693" ry="27.693" fill="#292b4b" style="isolation: isolate"/>
        <ellipse id="Ellipse_778" data-name="Ellipse 778" cx="24.891" cy="24.891" rx="24.891" ry="24.891" transform="translate(2.802 2.802)" fill="#4fabeb"/>
        <g id="Group_21397" data-name="Group 21397" transform="translate(3.023 6.7)">
          <path id="Path_10298" data-name="Path 10298" d="M716.939,256.838s2.872.464,3.614-.185,3.99-1.482,4.636-1.543c.58-.054,4.7.135,5.336.812.7.748.262,4.2,0,5.877-.262,1.651-10.069,7.526-11.5,7.139-.82-.222-3.755.464-3.323.914,0,0,1.331,1.4,1.238,1.96s-1.81,2.55-3.108,1.159-1.391-2.782-2.318-3.523-1.468-2.1-2.858-2.1-1.407-1.656-1.407-1.656l4.541-6.844,2.972-2.947Z" transform="translate(-707.247 -255.002)" fill="#292b4b" style="isolation: isolate"/>
          <path id="Path_10299" data-name="Path 10299" d="M733.37,296.087c.073-1.759-2.411-1.58-2.544-1.934-.068-.182-2.329-1.158-2.666.4a2.726,2.726,0,0,0,1.847,2.547c1.269.551,2.824.845,2.3,1.309a5.316,5.316,0,0,0-1.477,2.634c-.288,1.037.629,2.884,1.585,3.023.99.143,1.024-.611.958-.865-.1-.375,1.3-.673.865.625s-.3,1.826.113,2.066.655,3.8.8,4.42.1,4.084.384,4.42,2.114,3.6,3.363,3.652a1.971,1.971,0,0,0,2.114-1.874c0-.961,0-1.153.289-1.538a7.048,7.048,0,0,1,2.065-2.162,3.18,3.18,0,0,0,1.586-1.73c.1-.384,0-.817.529-1.1a3.705,3.705,0,0,0,1.441-1.3,8.364,8.364,0,0,0,1.009-3.315c.24-1.1.192-1.537.384-2.114s-.72-2.546-1.489-2.546a14.148,14.148,0,0,1-2.211.192c-.432-.144-.432-1.057-.816-1.633s-1.2-2.258-2.69-2.883a11.786,11.786,0,0,0-4.228-.913c-1.345-.048-1.393-.1-1.97.144a3.767,3.767,0,0,1-.577.24A8.23,8.23,0,0,1,733.37,296.087Z" transform="translate(-718.256 -275.335)" fill="#292b4b" style="isolation: isolate"/>
          <path id="Path_10300" data-name="Path 10300" d="M784.869,255.365s.358.938,0,1.43a1.122,1.122,0,0,0-.047,1.463,3.4,3.4,0,0,0,3.131.683,8.759,8.759,0,0,1,2.5-.76,25.613,25.613,0,0,0-3.62-3.129A1.98,1.98,0,0,0,784.869,255.365Z" transform="translate(-747.997 -254.893)" fill="#292b4b" style="isolation: isolate"/>
          <path id="Path_10301" data-name="Path 10301" d="M784.979,263.841s-2.011.492-2.95.671a17.037,17.037,0,0,0-4.514,2.056c-.268.4-1.385,1.475-1.385,1.877s-.313,1.564.268,2.19,1.251,1.833,1.921,1.922a2.968,2.968,0,0,0,1.967,0,1.986,1.986,0,0,0,1.252-1.341c.358-.849.491-1.028.983-.983s1.162.313.894.849-.447,1.39-.089,1.656.179.355,1.073.49.715-.536.8-.671-.224-1.788,0-2.19.463-.976.768-.913.3.2.886.555.089.76,1.341.8,1.252.134,1.654-.268,1.3-1.609,1.3-1.609-1.475-3.889-2.771-4.693-1.414-1.241-2.405-.822Z" transform="translate(-743.504 -259.302)" fill="#292b4b" style="isolation: isolate"/>
          <path id="Path_10302" data-name="Path 10302" d="M784.782,286.308c-.447,0-3.754-.8-4.783-.67a14.383,14.383,0,0,0-2.235.327c-1.341.3-1.832.566-2.146.611a4.8,4.8,0,0,0-1.966.983c-.179.358-.849,2.592-1.028,3.262a5.5,5.5,0,0,0,0,2.414c.179.67.581,2.234,1.43,2.592a4.561,4.561,0,0,0,2.235.223c1.028,0,1.452-.313,2.156.4s1.151.134,1.687,1.519a15.164,15.164,0,0,1,.8,2.548,2.8,2.8,0,0,0,.357.649v.423l-.313.581.524,1.117a.875.875,0,0,0-.3.626,1.615,1.615,0,0,0,.3.983,7.439,7.439,0,0,0,1.175,1.252c.447.358.715.894,1.564.76s1.966-.67,2.637-.8,2.995-3.084,3.129-3.62,1.787-5.223,1.832-6.21-.134-2.55,0-4.025a21.78,21.78,0,0,0-.179-3.71c-.045-.849,0-.8-.447-1.072s-5.229-.894-5.453-1.073a12.418,12.418,0,0,1-.371,1.577c-.248.482-.274.488-.433.466C784.642,288.4,784.782,286.308,784.782,286.308Z" transform="translate(-741.63 -271.087)" fill="#292b4b" style="isolation: isolate"/>
          <path id="Path_10303" data-name="Path 10303" d="M781.2,273.032s-.447,1.028,0,1.073a1.24,1.24,0,0,0,1.262-.536c.3-.491.526-1.1.7-1.176a7.164,7.164,0,0,0,.894-.925c.225-.12-.757-.567-1.073-.223a4.246,4.246,0,0,0-.614.849c-.057.179-.1.463-.414.567A4.961,4.961,0,0,0,781.2,273.032Z" transform="translate(-746.115 -263.443)" fill="#97c033" style="isolation: isolate"/>
          <path id="Path_10304" data-name="Path 10304" d="M787.753,270.068s-.447.223-.313.491.313.626.67.492.376-.581.792-.134.375.732.686.567.087-.355.4-.684a1.253,1.253,0,0,1,.894-.285l.492-.447s.239-.168.589.229.215.574.8.485.715-.044.894.269.178.552.4.7.76.344.491-.268a8.092,8.092,0,0,0-.536-1.187c-.313-.542.313-.452-.313-.542a7.441,7.441,0,0,1-1.252-.224,3.8,3.8,0,0,0-1.428,0c-.538,0-.449-.248-1.03-.079s-.625.035-.8.3-.76.447-.85.313S787.753,270.068,787.753,270.068Z" transform="translate(-749.495 -262.535)" fill="#97c033" style="isolation: isolate"/>
          <path id="Path_10305" data-name="Path 10305" d="M777.864,291.325s.586-1.3,1.5-1.385,1.137.134,2.254,0,.849-.536,1.877-.4,3.912,1.239,3.77.82-.221-.7-.131-.808a.486.486,0,0,1,.517-.147c.258.118-.1.776.268,1.117.325.3,1.37.284,1.682.492,1.143.76,2.742,1.519,3.145,2.592a2.639,2.639,0,0,1,0,2.19c-.224.715-.4,3.263-.626,3.71s-.224,2.279-.581,2.726-.849.76-.76,1.475.179,1.252.179,1.252l-1.357.179a5.016,5.016,0,0,1-.476.67c-.358.447-.76.894-1.117.8s-1.561.4-2.009-1.117-.717-3.352-1.119-5.05-.581-2.95-1.609-3.442-1.587-1.341-2.447-1.252a6.521,6.521,0,0,1-1.709.179c-1.028-.044-1.3-.134-1.609-.893s-.57-.715-.486-1.43a6.377,6.377,0,0,1,.71-1.7C777.775,291.728,777.864,291.325,777.864,291.325Z" transform="translate(-744.008 -273.065)" fill="#97c033" style="isolation: isolate"/>
          <path id="Path_10306" data-name="Path 10306" d="M739.2,305.773c0-.327.36-.508.613-.94a5.351,5.351,0,0,0,.577-1.081c.108-.36.036-.829.756-1.009a8.286,8.286,0,0,1,2.847.144,6.972,6.972,0,0,0,1.621.289c1.117.108.9.757,1.261,1.369s.756,1.874,1.729,2.414,1.225.937,1.874.792,1.009-.4,1.153-.18a.922.922,0,0,1,0,.973c-.216.433-.793.072-.4.829s.252.865.072,1.081a2.023,2.023,0,0,0-.36.937c0,.217.18.217-.577.757s-1.405.577-1.477,1.153-.18,1.045-.4,1.045-.253.757-.144,1.045.072.613-.5.793a7.441,7.441,0,0,0-2.364,1.55,2.793,2.793,0,0,0-.411.973c-.072.216-.216.936-.469.829s-.432-.973-.576-1.045a3.051,3.051,0,0,0-.541-.144s-.108-.075-.036-1.119.036-1.62-.18-1.764,0-1.838.036-2.559a4.363,4.363,0,0,0-.18-1.872,3.9,3.9,0,0,1-.648-1.191,6.2,6.2,0,0,0-1.117-1.766,8.18,8.18,0,0,1-1.225-.829c-.36-.4-.973-.468-.937-.793A3.761,3.761,0,0,0,739.2,305.773Z" transform="translate(-724.084 -280.07)" fill="#97c033" style="isolation: isolate"/>
          <path id="Path_10307" data-name="Path 10307" d="M718.355,261.564s.278-.649,2.132-.7a29.647,29.647,0,0,0,4.775-.371c.464-.185,1.252-.141,1.437-.372s.835.047,1.159-.277a4.689,4.689,0,0,1,2.55-.417,6.054,6.054,0,0,0,1.484-.024v4.057a16.584,16.584,0,0,1-2.6,1.84c-1.066.524-3.153,1.683-4.172,2.147s-2.225,1.159-3.059,1.437-1.391.139-2.365.51a3.479,3.479,0,0,0-1.344.7,4.5,4.5,0,0,0-.973,1.205s-.278-.7-.464-1.066a5.722,5.722,0,0,0-2.271-1.855c-.649-.093-1.252-.093-1.066-.417s.278-.371.788-1.066a9.037,9.037,0,0,1,1.252-1.808,15.567,15.567,0,0,0,1.344-1.716,12.023,12.023,0,0,0,1.02-1.344C718.077,261.889,718.355,261.564,718.355,261.564Z" transform="translate(-710.566 -257.272)" fill="#97c033" style="isolation: isolate"/>
        </g>
      </g>
      <path id="Path_10308" data-name="Path 10308" d="M732.2,296.408c.012-.061-.038-.037.023-.046a.2.2,0,0,1,.129.019c.049.03.072.09.117.125s.089.053.038.025c-.151-.084.015.084.026.125,0,.009-.151-.009-.154,0-.034.086.071.034,0,0C732.294,296.616,732.182,296.506,732.2,296.408Z" transform="translate(-717.371 -270.046)" fill="#97c033" style="isolation: isolate"/>
    </g>
    <text id="iopen" transform="translate(333.142 121.586)" fill="#1a203b" font-size="30" font-family="Roboto-Bold, Roboto" font-weight="700"><tspan x="-38.987" y="0">i</tspan><tspan y="0" font-family="ITCKabelStd-Demi, ITC Kabel Std" font-weight="300">open</tspan></text>
  </g>
</svg>
