<svg xmlns="http://www.w3.org/2000/svg" xmlns:xlink="http://www.w3.org/1999/xlink" width="977" height="612" viewBox="0 0 977 612">
  <defs>
    <clipPath id="clip-path">
      <rect id="Rectangle_4125" data-name="Rectangle 4125" width="977" height="612" fill="#fff" stroke="#707070" stroke-width="1"/>
    </clipPath>
  </defs>
  <g id="Mask_Group_19" data-name="Mask Group 19" clip-path="url(#clip-path)">
    <g id="Group_21748" data-name="Group 21748">
      <path id="Path_10311" data-name="Path 10311" d="M443,0C687.662,0,886,198.338,886,443S687.662,886,443,886,241.96,369.817,31.142,443,198.338,0,443,0Z" transform="translate(-11.669 -336)" fill="#dee2ff" opacity="0.27"/>
      <path id="Path_10309" data-name="Path 10309" d="M406.137,0c224.3,0,406.137,181.834,406.137,406.137S507.665,926.229,325.423,589.372,0,630.44,0,406.137,181.834,0,406.137,0Z" transform="matrix(0.999, 0.035, -0.035, 0.999, -39.997, -313.952)" fill="#dcdcf8" opacity="0.3"/>
      <path id="Path_10635" data-name="Path 10635" d="M366.271,0C568.557,0,732.543,163.985,732.543,366.271S457.834,835.313,293.48,531.521,0,568.557,0,366.271,163.985,0,366.271,0Z" transform="translate(-27.323 -309.34)" fill="#e2e3f9" opacity="0.7"/>
    </g>
  </g>
</svg>
